<svg width="1200" height="1200" viewBox="0 0 1200 1200" fill="none" xmlns="http://www.w3.org/2000/svg">
  <rect width="1200" height="1200" rx="120" fill="#08111D"/>
  <rect x="78" y="78" width="1044" height="1044" rx="72" fill="url(#paint0_linear)"/>
  <circle cx="319" cy="290" r="164" fill="url(#paint1_radial)" opacity="0.82"/>
  <circle cx="935" cy="278" r="132" fill="url(#paint2_radial)" opacity="0.58"/>
  <circle cx="858" cy="892" r="190" fill="url(#paint3_radial)" opacity="0.44"/>
  <path d="M180 727C286.706 667.036 393.412 637.054 500.118 637.054C606.823 637.054 713.529 667.036 820.235 727" stroke="#FFD18C" stroke-width="28" stroke-linecap="round"/>
  <path d="M214 825C309.765 771.235 405.529 744.353 501.294 744.353C597.059 744.353 692.823 771.235 788.588 825" stroke="#6CE6C8" stroke-width="18" stroke-linecap="round" opacity="0.82"/>
  <circle cx="594" cy="447" r="126" stroke="#F8F2E8" stroke-width="24"/>
  <circle cx="594" cy="447" r="47" fill="#F7941D"/>
  <text x="158" y="980" fill="#F8F2E8" font-family="Arial, Helvetica, sans-serif" font-size="118" font-weight="700">IvariumLabs</text>
  <text x="160" y="1070" fill="#FFD18C" font-family="Arial, Helvetica, sans-serif" font-size="98" font-weight="700">Cast</text>
  <defs>
    <linearGradient id="paint0_linear" x1="109" y1="111" x2="1048" y2="1089" gradientUnits="userSpaceOnUse">
      <stop stop-color="#102037"/>
      <stop offset="1" stop-color="#0B1624"/>
    </linearGradient>
    <radialGradient id="paint1_radial" cx="0" cy="0" r="1" gradientUnits="userSpaceOnUse" gradientTransform="translate(319 290) rotate(90) scale(164)">
      <stop stop-color="#F7941D"/>
      <stop offset="1" stop-color="#F7941D" stop-opacity="0"/>
    </radialGradient>
    <radialGradient id="paint2_radial" cx="0" cy="0" r="1" gradientUnits="userSpaceOnUse" gradientTransform="translate(935 278) rotate(90) scale(132)">
      <stop stop-color="#8BB5FF"/>
      <stop offset="1" stop-color="#8BB5FF" stop-opacity="0"/>
    </radialGradient>
    <radialGradient id="paint3_radial" cx="0" cy="0" r="1" gradientUnits="userSpaceOnUse" gradientTransform="translate(858 892) rotate(90) scale(190)">
      <stop stop-color="#6CE6C8"/>
      <stop offset="1" stop-color="#6CE6C8" stop-opacity="0"/>
    </radialGradient>
  </defs>
</svg>
